<svg width="46" height="53" viewBox="0 0 46 53" fill="none" xmlns="http://www.w3.org/2000/svg">
<rect x="0.5" y="6" width="45" height="29" rx="1.5" fill="white" stroke="black"/>
<path d="M6.91421 1.58579L2.5 6H21.5L17.5959 1.66207C17.2166 1.24064 16.6762 1 16.1093 1H8.32843C7.79799 1 7.28929 1.21071 6.91421 1.58579Z" fill="white" stroke="black"/>
<path d="M1.5 8C1.5 7.44771 1.94772 7 2.5 7H43.5C44.0523 7 44.5 7.44772 44.5 8V33C44.5 33.5523 44.0523 34 43.5 34H2.5C1.94772 34 1.5 33.5523 1.5 33V8Z" fill="#1572B6"/>
<path d="M28.4587 20.25L29.4674 31.5616L33.9931 32.8179L38.5315 31.56L39.5412 20.25H28.4587ZM37.11 26.561L36.8162 29.2975L36.8174 29.5319L34 30.3188L33.9977 30.3208L31.1579 29.5426L30.9657 27.375H32.3584L32.4571 28.4707L34.0005 28.8826L34 28.8845V28.8805L35.5492 28.4436L35.7127 26.625H32.4744L32.4466 26.3306L32.3834 25.6248L32.3502 25.25H35.836L35.9627 23.875H30.6536L30.6257 23.5514L30.5625 22.7976L30.5294 22.375H37.479L37.4456 22.7917L37.11 26.561Z" fill="black"/>
<path d="M37.125 18.7967L36.2314 17.75H37.125V17.125H35.125V17.6704L36.1737 18.625H35.125V19.25H37.125V18.7967ZM34.75 18.7967L33.8991 17.75H34.75V17.125H32.875V17.6704L33.8416 18.625H32.875V19.25H34.75V18.7967ZM32.5 18.625H31.5V17.75H32.5V17.125H30.75V19.25H32.5V18.625Z" fill="black"/>
<rect width="35" height="16" transform="translate(5.5 36.5)" fill="white"/>
<path d="M13.6875 49.5V49H12.1875V48.5H11.6875V48H11.1875V47.5H10.6875V46.5H10.1875V42.5H10.6875V41.5H11.1875V41H11.6875V40.5H12.1875V40H13.6875V39.5H16.1875V40H17.6875V40.5H18.1875V41.5H18.6875V42H19.1875V42.5H17.1875V42H16.6875V41.5H15.6875V41H14.1875V41.5H13.1875V42H12.6875V42.5H12.1875V43.5H11.6875V45.5H12.1875V46.5H12.6875V47H13.1875V47.5H14.1875V48H15.6875V47.5H16.6875V47H17.1875V46.5H19.1875V47H18.6875V47.5H18.1875V48.5H17.6875V49H16.1875V49.5H13.6875ZM22.6406 49.5V49H21.6406V48.5H21.1406V48H20.6406V47H22.1406V47.5H22.6406V48H25.1406V47.5H25.6406V46H25.1406V45.5H24.6406V45H23.1406V44.5H21.6406V44H21.1406V43.5H20.6406V41H21.1406V40.5H21.6406V40H22.1406V39.5H25.6406V40H26.1406V40.5H26.6406V41.5H25.1406V41H22.6406V41.5H22.1406V43H23.1406V43.5H24.6406V44H25.6406V44.5H26.6406V45.5H27.1406V48H26.6406V48.5H26.1406V49H25.1406V49.5H22.6406ZM30.6875 49.5V49H29.6875V48.5H29.1875V48H28.6875V47H30.1875V47.5H30.6875V48H33.1875V47.5H33.6875V46H33.1875V45.5H32.6875V45H31.1875V44.5H29.6875V44H29.1875V43.5H28.6875V41H29.1875V40.5H29.6875V40H30.1875V39.5H33.6875V40H34.1875V40.5H34.6875V41.5H33.1875V41H30.6875V41.5H30.1875V43H31.1875V43.5H32.6875V44H33.6875V44.5H34.6875V45.5H35.1875V48H34.6875V48.5H34.1875V49H33.1875V49.5H30.6875Z" fill="black"/>
<path d="M7.41421 2.58579L5 5H19L17.0997 2.71963C16.7197 2.26365 16.1568 2 15.5632 2H8.82843C8.29799 2 7.78929 2.21071 7.41421 2.58579Z" fill="#1572B6" stroke="#1572B6" stroke-width="0.5"/>
</svg>
