<svg width="75" height="53" viewBox="0 0 75 53" fill="none" xmlns="http://www.w3.org/2000/svg">
<rect x="15" y="6" width="45" height="29" rx="1.5" fill="white" stroke="black"/>
<path d="M21.4142 1.58579L17 6H36L32.0959 1.66207C31.7166 1.24064 31.1762 1 30.6093 1H22.8284C22.298 1 21.7893 1.21071 21.4142 1.58579Z" fill="white" stroke="black"/>
<path d="M16 8C16 7.44771 16.4477 7 17 7H58C58.5523 7 59 7.44772 59 8V33C59 33.5523 58.5523 34 58 34H17C16.4477 34 16 33.5523 16 33V8Z" fill="#FFD93D"/>
<path d="M41 30.639L42.5306 29.7127C42.8258 30.2362 43.0944 30.6792 43.7387 30.6792C44.3563 30.6792 44.7457 30.4376 44.7457 29.4979V23.1075H46.6252V29.5245C46.6252 31.4712 45.4841 32.3572 43.8193 32.3572C42.3158 32.3572 41.443 31.5787 41 30.639Z" fill="black"/>
<path d="M47.6461 30.4376L49.1764 29.5515C49.5793 30.2094 50.1029 30.6927 51.0291 30.6927C51.8079 30.6927 52.3045 30.3033 52.3045 29.7663C52.3045 29.1219 51.7944 28.8937 50.9351 28.5179L50.4654 28.3163C49.1094 27.7392 48.2098 27.0142 48.2098 25.4837C48.2098 24.0741 49.2838 23 50.9621 23C52.1569 23 53.0161 23.4162 53.6336 24.5037L52.1702 25.4434C51.848 24.8662 51.4991 24.638 50.9621 24.638C50.4116 24.638 50.0626 24.987 50.0626 25.4434C50.0626 26.0073 50.4116 26.2356 51.2171 26.5846L51.6869 26.786C53.2845 27.4707 54.1841 28.1688 54.1841 29.7395C54.1841 31.4311 52.855 32.3574 51.0695 32.3574C49.3242 32.3574 48.1964 31.5251 47.6461 30.4376Z" fill="black"/>
<rect width="75" height="16" transform="translate(0 36.5)" fill="white"/>
<path d="M5.73438 49.5V49H4.73438V48H4.23438V46H5.73438V47.5H6.23438V48H7.73438V47.5H8.23438V39.5H9.73438V48H9.23438V49H8.23438V49.5H5.73438ZM15.3125 48V47.5H15.8125V47H16.3125V44.5H15.8125V44H15.3125V43.5H13.3125V44H12.8125V47.5H13.3125V48H15.3125ZM13.3125 49.5V49H12.3125V48.5H11.8125V47.5H11.3125V44H11.8125V43H12.3125V42.5H13.3125V42H15.3125V42.5H15.8125V43H16.3125V42H17.8125V49.5H16.3125V48.5H15.8125V49H15.3125V49.5H13.3125ZM21.2031 49.5V48.5H20.7031V47H20.2031V45H19.7031V43.5H19.2031V42H20.7031V43H21.2031V45H21.7031V46.5H22.2031V48H22.7031V46.5H23.2031V45H23.7031V43H24.2031V42H25.7031V43.5H25.2031V45H24.7031V47H24.2031V48.5H23.7031V49.5H21.2031ZM30.9531 48V47.5H31.4531V47H31.9531V44.5H31.4531V44H30.9531V43.5H28.9531V44H28.4531V47.5H28.9531V48H30.9531ZM28.9531 49.5V49H27.9531V48.5H27.4531V47.5H26.9531V44H27.4531V43H27.9531V42.5H28.9531V42H30.9531V42.5H31.4531V43H31.9531V42H33.4531V49.5H31.9531V48.5H31.4531V49H30.9531V49.5H28.9531ZM36 49.5V49H35.5V48.5H35V47.5H35.5V47H36V47.5H36.5V48H37V48.5H38V48H38.5V47H38V46.5H37.5V46H36.5V45.5H36V45H35.5V44.5H35V43H35.5V42.5H36V42H39V42.5H39.5V44H38.5V43.5H38V43H37V43.5H36.5V44H37V44.5H37.5V45H38.5V45.5H39V46H39.5V46.5H40V48.5H39.5V49H39V49.5H36ZM43.3281 49.5V49H42.3281V48.5H41.8281V47.5H41.3281V44H41.8281V43H42.3281V42.5H43.3281V42H45.3281V42.5H46.3281V43H46.8281V44.5H45.8281V44H45.3281V43.5H43.3281V44H42.8281V47.5H43.3281V48H45.3281V47.5H45.8281V47H46.8281V48.5H46.3281V49H45.3281V49.5H43.3281ZM48.3906 49.5V42H49.8906V43H50.3906V42.5H50.8906V42H52.8906V42.5H53.3906V43H53.8906V44H53.3906V44.5H52.8906V44H52.3906V43.5H50.8906V44H50.3906V44.5H49.8906V49.5H48.3906ZM54.5938 49.5V42H56.0938V49.5H54.5938ZM54.5938 41V39.5H56.0938V41H54.5938ZM62.3438 48V47.5H62.8438V44H62.3438V43.5H60.3438V44H59.8438V44.5H59.3438V47H59.8438V47.5H60.3438V48H62.3438ZM57.8438 52.5V42H59.3438V43H59.8438V42.5H60.3438V42H62.3438V42.5H63.3438V43H63.8438V44H64.3438V47.5H63.8438V48.5H63.3438V49H62.3438V49.5H60.3438V49H59.8438V48.5H59.3438V52.5H57.8438ZM66.6094 49.5V43.5H65.6094V42H66.6094V40H68.1094V42H70.1094V43.5H68.1094V49.5H66.6094Z" fill="black"/>
<path d="M21.9142 2.58579L19.5 5H33.5L31.5997 2.71963C31.2197 2.26365 30.6568 2 30.0632 2H23.3284C22.798 2 22.2893 2.21071 21.9142 2.58579Z" fill="#FFD93D" stroke="#F7DF1E" stroke-width="0.5"/>
</svg>
