<svg width="46" height="52" viewBox="0 0 46 52" fill="none" xmlns="http://www.w3.org/2000/svg">
<rect x="0.5" y="13.5" width="45" height="29" rx="1.5" fill="white" stroke="black"/>
<path d="M6.91421 9.08579L2.5 13.5H21.5L17.5959 9.16207C17.2166 8.74064 16.6762 8.5 16.1093 8.5H8.32843C7.79799 8.5 7.28929 8.71071 6.91421 9.08579Z" fill="white" stroke="black"/>
<path d="M1.5 15.5C1.5 14.9477 1.94772 14.5 2.5 14.5H43.5C44.0523 14.5 44.5 14.9477 44.5 15.5V40.5C44.5 41.0523 44.0523 41.5 43.5 41.5H2.5C1.94772 41.5 1.5 41.0523 1.5 40.5V15.5Z" fill="#1572B6"/>
<g clip-path="url(#clip0_300_9070)">
<path d="M28.4587 27.75L29.4674 39.0616L33.9931 40.3179L38.5315 39.06L39.5412 27.75H28.4587ZM37.11 34.061L36.8162 36.7975L36.8174 37.0319L34 37.8188L33.9977 37.8208L31.1579 37.0426L30.9657 34.875H32.3584L32.4571 35.9707L34.0005 36.3826L34 36.3845V36.3805L35.5492 35.9436L35.7127 34.125H32.4744L32.4466 33.8306L32.3834 33.1248L32.3502 32.75H35.836L35.9627 31.375H30.6536L30.6257 31.0514L30.5625 30.2976L30.5294 29.875H37.479L37.4456 30.2917L37.11 34.061Z" fill="black"/>
<path d="M37.125 26.2967L36.2314 25.25H37.125V24.625H35.125V25.1704L36.1737 26.125H35.125V26.75H37.125V26.2967ZM34.75 26.2967L33.8991 25.25H34.75V24.625H32.875V25.1704L33.8416 26.125H32.875V26.75H34.75V26.2967ZM32.5 26.125H31.5V25.25H32.5V24.625H30.75V26.75H32.5V26.125Z" fill="black"/>
</g>
<path d="M7.41421 10.0858L5 12.5H19L17.0997 10.2196C16.7197 9.76365 16.1568 9.5 15.5632 9.5H8.82843C8.29799 9.5 7.78929 9.71071 7.41421 10.0858Z" fill="#1572B6" stroke="#1572B6" stroke-width="0.5"/>
<defs>
<clipPath id="clip0_300_9070">
<rect width="16" height="16" fill="white" transform="translate(26 24.5)"/>
</clipPath>
</defs>
</svg>
