<svg width="46" height="52" viewBox="0 0 46 52" fill="none" xmlns="http://www.w3.org/2000/svg">
<rect x="0.5" y="13.5" width="45" height="29" rx="1.5" fill="white" stroke="black"/>
<path d="M6.91421 9.08579L2.5 13.5H21.5L17.5959 9.16207C17.2166 8.74064 16.6762 8.5 16.1093 8.5H8.32843C7.79799 8.5 7.28929 8.71071 6.91421 9.08579Z" fill="white" stroke="black"/>
<path d="M1.5 15.5C1.5 14.9477 1.94772 14.5 2.5 14.5H43.5C44.0523 14.5 44.5 14.9477 44.5 15.5V40.5C44.5 41.0523 44.0523 41.5 43.5 41.5H2.5C1.94772 41.5 1.5 41.0523 1.5 40.5V15.5Z" fill="url(#paint0_linear_398_8649)"/>
<g clip-path="url(#clip0_398_8649)">
<path d="M39.4808 28.0407L38.4822 39.228L33.9933 40.4725L29.5167 39.2298L28.5191 28.0407H39.4808Z" fill="black"/>
<path d="M34 39.5213L37.6273 38.5157L38.4807 28.9556H34V39.5213Z" fill="black"/>
<path d="M32.0587 31.7002H34V30.3279H30.559L30.5918 30.696L30.9291 34.4777H34V33.1054H32.1841L32.0587 31.7002Z" fill="#E44D26"/>
<path d="M32.3679 35.1639H30.9904L31.1826 37.3186L33.9937 38.0989L34 38.0972V36.6694L33.994 36.671L32.4656 36.2583L32.3679 35.1639Z" fill="#E44D26"/>
<path d="M29.539 25H30.2364V25.689H30.8743V25H31.5717V27.0865H30.8744V26.3878H30.2364V27.0865H29.539L29.539 25Z" fill="black"/>
<path d="M32.4888 25.6919H31.8749V25H33.8005V25.6919H33.1863V27.0865H32.4889L32.4888 25.6919Z" fill="black"/>
<path d="M34.1061 25H34.8333L35.2806 25.7331L35.7274 25H36.4549V27.0865H35.7604V26.0523L35.2806 26.7942H35.2686L34.7884 26.0523V27.0865H34.1061V25Z" fill="black"/>
<path d="M36.802 25H37.4996V26.3968H38.4803V27.0865H36.802V25Z" fill="black"/>
<path d="M33.9952 34.4777H35.6851L35.5258 36.2575L33.9952 36.6706V38.0983L36.8085 37.3186L36.8292 37.0868L37.1516 33.474L37.1851 33.1055H33.9952V34.4777Z" fill="#E95627"/>
<path d="M33.9952 31.6968V31.7002H37.31L37.3375 31.3917L37.4 30.696L37.4329 30.3279H33.9952V31.6968Z" fill="#EB5A28"/>
</g>
<path d="M7.41421 10.0858L5 12.5H19L17.0997 10.2196C16.7197 9.76365 16.1568 9.5 15.5632 9.5H8.82843C8.29799 9.5 7.78929 9.71071 7.41421 10.0858Z" fill="#E44D26" stroke="#E44D26" stroke-width="0.5"/>
<defs>
<linearGradient id="paint0_linear_398_8649" x1="53" y1="42" x2="-22" y2="42" gradientUnits="userSpaceOnUse">
<stop stop-color="#E44D26" stop-opacity="0.38284"/>
<stop offset="0.0001" stop-color="#F16529"/>
<stop offset="0.489583" stop-color="#E44D26"/>
</linearGradient>
<clipPath id="clip0_398_8649">
<rect width="11" height="15.5117" fill="white" transform="translate(28.5 25)"/>
</clipPath>
</defs>
</svg>
