<svg width="46" height="52" viewBox="0 0 46 52" fill="none" xmlns="http://www.w3.org/2000/svg">
<rect x="0.5" y="13.5" width="45" height="29" rx="1.5" fill="white" stroke="black"/>
<path d="M6.91421 9.08579L2.5 13.5H21.5L17.5959 9.16207C17.2166 8.74064 16.6762 8.5 16.1093 8.5H8.32843C7.79799 8.5 7.28929 8.71071 6.91421 9.08579Z" fill="white" stroke="black"/>
<path d="M1.5 15.5C1.5 14.9477 1.94772 14.5 2.5 14.5H43.5C44.0523 14.5 44.5 14.9477 44.5 15.5V40.5C44.5 41.0523 44.0523 41.5 43.5 41.5H2.5C1.94772 41.5 1.5 41.0523 1.5 40.5V15.5Z" fill="#FFCD00"/>
<path d="M26 36.139L27.5306 35.2127C27.8258 35.7362 28.0944 36.1792 28.7387 36.1792C29.3563 36.1792 29.7457 35.9376 29.7457 34.9979V28.6075H31.6252V35.0245C31.6252 36.9712 30.4841 37.8572 28.8193 37.8572C27.3158 37.8572 26.443 37.0787 26 36.139Z" fill="black"/>
<path d="M32.6461 35.9376L34.1764 35.0515C34.5793 35.7094 35.1029 36.1927 36.0291 36.1927C36.8079 36.1927 37.3045 35.8033 37.3045 35.2663C37.3045 34.6219 36.7944 34.3937 35.9351 34.0179L35.4654 33.8163C34.1094 33.2392 33.2098 32.5142 33.2098 30.9837C33.2098 29.5741 34.2838 28.5 35.9621 28.5C37.1569 28.5 38.0161 28.9162 38.6336 30.0037L37.1702 30.9434C36.848 30.3662 36.4991 30.138 35.9621 30.138C35.4116 30.138 35.0626 30.487 35.0626 30.9434C35.0626 31.5073 35.4116 31.7356 36.2171 32.0846L36.6869 32.286C38.2845 32.9707 39.1841 33.6688 39.1841 35.2395C39.1841 36.9311 37.855 37.8574 36.0695 37.8574C34.3242 37.8574 33.1964 37.0251 32.6461 35.9376Z" fill="black"/>
<path d="M7.41421 10.0858L5 12.5H19L17.0997 10.2196C16.7197 9.76365 16.1568 9.5 15.5632 9.5H8.82843C8.29799 9.5 7.78929 9.71071 7.41421 10.0858Z" fill="#FFCD00" stroke="#FFCD00" stroke-width="0.5"/>
</svg>
