<svg width="46" height="53" viewBox="0 0 46 53" fill="none" xmlns="http://www.w3.org/2000/svg">
<rect x="0.5" y="6" width="45" height="29" rx="1.5" fill="white" stroke="black"/>
<path d="M6.91421 1.58579L2.5 6H21.5L17.5959 1.66207C17.2166 1.24064 16.6762 1 16.1093 1H8.32843C7.79799 1 7.28929 1.21071 6.91421 1.58579Z" fill="white" stroke="black"/>
<path d="M1.5 8C1.5 7.44771 1.94772 7 2.5 7H43.5C44.0523 7 44.5 7.44772 44.5 8V33C44.5 33.5523 44.0523 34 43.5 34H2.5C1.94772 34 1.5 33.5523 1.5 33V8Z" fill="#B70404"/>
<g clip-path="url(#clip0_300_9056)">
<path fill-rule="evenodd" clip-rule="evenodd" d="M29.7154 31.0465C32.934 31.486 36.0955 31.9176 39.3198 32.3576C38.2213 30.5288 37.151 28.7467 36.0722 26.9501L29.7154 31.0465ZM40.2282 20.9235C39.9445 21.3496 39.6602 21.7753 39.3769 22.2017C38.4038 23.6657 37.4307 25.1297 36.4586 26.5944C36.4044 26.676 36.3342 26.7407 36.4105 26.8664C37.3499 28.4176 38.2819 29.9734 39.2162 31.5278C39.3636 31.7733 39.5127 32.0179 39.7034 32.2534C39.8923 28.4808 40.0811 24.7081 40.2698 20.9354L40.2282 20.9235ZM27.4045 25.7602C27.4485 25.8018 27.5582 25.826 27.6093 25.8008C28.5103 25.358 29.4171 24.925 30.2985 24.4457C30.5859 24.2895 30.807 24.0094 31.0546 23.7823C31.8745 23.0303 32.6932 22.2768 33.5115 21.5231C33.5616 21.4769 33.6209 21.4321 33.6507 21.3737C33.9447 20.7993 34.2335 20.2219 34.5326 19.6279C34.176 19.4938 33.8379 19.3627 33.4956 19.2434C33.4492 19.2272 33.3761 19.2593 33.3258 19.2873C32.5335 19.7299 31.7263 20.149 30.9592 20.6317C30.5754 20.8732 30.2627 21.2291 29.9229 21.5391C29.3752 22.039 28.8281 22.5401 28.2884 23.0487C28.1452 23.1837 28.0146 23.3379 27.903 23.5003C27.5339 24.0379 27.1758 24.5831 26.8013 25.1439C27.0105 25.3603 27.2009 25.5673 27.4045 25.7602ZM30.6977 25.0253C30.2495 26.9189 29.8039 28.8019 29.3435 30.7467C31.5025 29.3556 33.6116 27.9966 35.7068 26.6467C34.0395 26.107 32.3775 25.569 30.6977 25.0253ZM39.6779 20.9418C37.8538 21.2466 36.0732 21.544 34.2697 21.8453C34.884 23.3395 35.486 24.8038 36.1051 26.3097C37.3029 24.5098 38.477 22.746 39.6779 20.9418ZM30.773 24.638C32.4156 25.1712 34.0255 25.6938 35.6822 26.2317C35.067 24.7329 34.4728 23.2865 33.8664 21.8094C32.8334 22.7538 31.8158 23.6843 30.773 24.638ZM27.4724 26.8644C26.8898 28.257 26.3271 29.6022 25.7542 30.9716C26.8553 30.939 27.9226 30.9075 29.0266 30.8749C28.5083 29.5376 28.0002 28.2265 27.4724 26.8644ZM29.0653 29.9226L29.1059 29.9136C29.4988 28.2799 29.8973 26.6575 30.2985 24.9599C29.4036 25.425 28.55 25.8686 27.6731 26.3244C28.1207 27.4876 28.5979 28.7147 29.0653 29.9226ZM39.0177 20.6768C38.4952 20.5384 37.9726 20.3995 37.4498 20.2621C36.6984 20.0645 35.9464 19.8694 35.1955 19.6701C35.1016 19.6451 35.0338 19.6288 34.9786 19.7419C34.7132 20.2856 34.4395 20.8253 34.1699 21.367C34.1616 21.3838 34.1633 21.4055 34.1569 21.4476C35.7841 21.201 37.4005 20.956 39.0166 20.711L39.0177 20.6768ZM35.9862 19.44L40.2451 20.6182C40.0009 19.9222 39.7744 19.2769 39.5414 18.6131L35.9924 19.4001L35.9862 19.44ZM29.4264 31.3602C28.8989 31.2994 28.3574 31.3553 27.8224 31.3645C27.383 31.3719 26.9435 31.3887 26.5041 31.4024C26.4588 31.4038 26.4137 31.4129 26.3686 31.4617C30.0018 31.7976 33.6348 32.1334 37.2679 32.4695L37.2752 32.421C36.1106 32.262 34.9459 32.1029 33.7813 31.944C32.33 31.7459 30.8813 31.5279 29.4264 31.3602ZM25.826 29.7181C26.2942 28.6317 26.7604 27.5447 27.2304 26.4592C27.2774 26.3503 27.2738 26.2764 27.1818 26.1887C26.9851 26.0016 26.8024 25.7999 26.5875 25.5763C26.297 27.0107 26.0136 28.4095 25.73 29.8083L25.7618 29.8232C25.7835 29.7884 25.81 29.7554 25.826 29.7181ZM35.0534 19.1533C35.8429 18.9496 36.6438 18.7903 37.4401 18.6127C37.4917 18.6011 37.5421 18.5841 37.5928 18.5695L37.585 18.5306C36.4634 18.6815 35.3419 18.8324 34.1638 18.991C34.485 19.1312 34.7325 19.236 35.0534 19.1533Z" fill="black"/>
</g>
<rect width="41" height="16" transform="translate(2.5 36.5)" fill="white"/>
<path d="M12.3906 43.5V43H12.8906V41.5H12.3906V41H8.89062V43.5H12.3906ZM7.39062 49.5V39.5H12.8906V40H13.3906V40.5H13.8906V41H14.3906V43.5H13.8906V44H13.3906V44.5H12.8906V45H11.3906V45.5H11.8906V46H12.3906V46.5H12.8906V47H13.3906V47.5H13.8906V48H14.3906V48.5H14.8906V49H15.3906V49.5H13.3906V49H12.8906V48.5H12.3906V48H11.8906V47.5H11.3906V47H10.8906V46.5H10.3906V46H9.89062V45.5H9.39062V45H8.89062V49.5H7.39062ZM17.7344 49.5V49H17.2344V48.5H16.7344V42H18.2344V47.5H18.7344V48H20.2344V47.5H20.7344V47H21.2344V42H22.7344V49.5H21.2344V48.5H20.7344V49H20.2344V49.5H17.7344ZM28.9219 48V47.5H29.4219V44H28.9219V43.5H26.9219V44H26.4219V44.5H25.9219V47H26.4219V47.5H26.9219V48H28.9219ZM24.4219 49.5V39.5H25.9219V43H26.4219V42.5H26.9219V42H28.9219V42.5H29.9219V43H30.4219V44H30.9219V47.5H30.4219V48.5H29.9219V49H28.9219V49.5H26.9219V49H26.4219V48.5H25.9219V49.5H24.4219ZM33.5938 52.5V51H34.0938V49.5H34.5938V48.5H34.0938V47.5H33.5938V46.5H33.0938V45H32.5938V43.5H32.0938V42H33.5938V43.5H34.0938V45H34.5938V46.5H35.0938V47H35.5938V45H36.0938V43.5H36.5938V42H38.0938V43.5H37.5938V45H37.0938V46.5H36.5938V48H36.0938V49.5H35.5938V51H35.0938V52.5H33.5938Z" fill="black"/>
<path d="M7.41421 2.58579L5 5H19L17.0997 2.71963C16.7197 2.26365 16.1568 2 15.5632 2H8.82843C8.29799 2 7.78929 2.21071 7.41421 2.58579Z" fill="#B70404" stroke="#D91404" stroke-width="0.5"/>
<defs>
<clipPath id="clip0_300_9056">
<rect width="15" height="15" fill="white" transform="translate(25.5 18)"/>
</clipPath>
</defs>
</svg>
