<svg width="46" height="52" viewBox="0 0 46 52" fill="none" xmlns="http://www.w3.org/2000/svg">
<rect x="0.5" y="13.5" width="45" height="29" rx="1.5" fill="white" stroke="black"/>
<path d="M6.91421 9.08579L2.5 13.5H21.5L17.5959 9.16207C17.2166 8.74064 16.6762 8.5 16.1093 8.5H8.32843C7.79799 8.5 7.28929 8.71071 6.91421 9.08579Z" fill="white" stroke="black"/>
<path d="M1.5 15.5C1.5 14.9477 1.94772 14.5 2.5 14.5H43.5C44.0523 14.5 44.5 14.9477 44.5 15.5V40.5C44.5 41.0523 44.0523 41.5 43.5 41.5H2.5C1.94772 41.5 1.5 41.0523 1.5 40.5V15.5Z" fill="#B70404"/>
<g clip-path="url(#clip0_390_8636)">
<path fill-rule="evenodd" clip-rule="evenodd" d="M29.7154 38.5465C32.934 38.986 36.0955 39.4176 39.3198 39.8576C38.2213 38.0288 37.151 36.2467 36.0722 34.4501L29.7154 38.5465ZM40.2282 28.4235C39.9445 28.8496 39.6602 29.2753 39.3769 29.7017C38.4038 31.1657 37.4307 32.6297 36.4586 34.0944C36.4044 34.176 36.3342 34.2407 36.4105 34.3664C37.3499 35.9176 38.2819 37.4734 39.2162 39.0278C39.3636 39.2733 39.5127 39.5179 39.7034 39.7534C39.8923 35.9808 40.0811 32.2081 40.2698 28.4354L40.2282 28.4235ZM27.4045 33.2602C27.4485 33.3018 27.5582 33.326 27.6093 33.3008C28.5103 32.858 29.4171 32.425 30.2985 31.9457C30.5859 31.7895 30.807 31.5094 31.0546 31.2823C31.8745 30.5303 32.6932 29.7768 33.5115 29.0231C33.5616 28.9769 33.6209 28.9321 33.6507 28.8737C33.9447 28.2993 34.2335 27.7219 34.5326 27.1279C34.176 26.9938 33.8379 26.8627 33.4956 26.7434C33.4492 26.7272 33.3761 26.7593 33.3258 26.7873C32.5335 27.2299 31.7263 27.649 30.9592 28.1317C30.5754 28.3732 30.2627 28.7291 29.9229 29.0391C29.3752 29.539 28.8281 30.0401 28.2884 30.5487C28.1452 30.6837 28.0146 30.8379 27.903 31.0003C27.5339 31.5379 27.1758 32.0831 26.8013 32.6439C27.0105 32.8603 27.2009 33.0673 27.4045 33.2602ZM30.6977 32.5253C30.2495 34.4189 29.8039 36.3019 29.3435 38.2467C31.5025 36.8556 33.6116 35.4966 35.7068 34.1467C34.0395 33.607 32.3775 33.069 30.6977 32.5253ZM39.6779 28.4418C37.8538 28.7466 36.0732 29.044 34.2697 29.3453C34.884 30.8395 35.486 32.3038 36.1051 33.8097C37.3029 32.0098 38.477 30.246 39.6779 28.4418ZM30.773 32.138C32.4156 32.6712 34.0255 33.1938 35.6822 33.7317C35.067 32.2329 34.4728 30.7865 33.8664 29.3094C32.8334 30.2538 31.8158 31.1843 30.773 32.138ZM27.4724 34.3644C26.8898 35.757 26.3271 37.1022 25.7542 38.4716C26.8553 38.439 27.9226 38.4075 29.0266 38.3749C28.5083 37.0376 28.0002 35.7265 27.4724 34.3644ZM29.0653 37.4226L29.1059 37.4136C29.4988 35.7799 29.8973 34.1575 30.2985 32.4599C29.4036 32.925 28.55 33.3686 27.6731 33.8244C28.1207 34.9876 28.5979 36.2147 29.0653 37.4226ZM39.0177 28.1768C38.4952 28.0384 37.9726 27.8995 37.4498 27.7621C36.6984 27.5645 35.9464 27.3694 35.1955 27.1701C35.1016 27.1451 35.0338 27.1288 34.9786 27.2419C34.7132 27.7856 34.4395 28.3253 34.1699 28.867C34.1616 28.8838 34.1633 28.9055 34.1569 28.9476C35.7841 28.701 37.4005 28.456 39.0166 28.211L39.0177 28.1768ZM35.9862 26.94L40.2451 28.1182C40.0009 27.4222 39.7744 26.7769 39.5414 26.1131L35.9924 26.9001L35.9862 26.94ZM29.4264 38.8602C28.8989 38.7994 28.3574 38.8553 27.8224 38.8645C27.383 38.8719 26.9435 38.8887 26.5041 38.9024C26.4588 38.9038 26.4137 38.9129 26.3686 38.9617C30.0018 39.2976 33.6348 39.6334 37.2679 39.9695L37.2752 39.921C36.1106 39.762 34.9459 39.6029 33.7813 39.444C32.33 39.2459 30.8813 39.0279 29.4264 38.8602ZM25.826 37.2181C26.2942 36.1317 26.7604 35.0447 27.2304 33.9592C27.2774 33.8503 27.2738 33.7764 27.1818 33.6887C26.9851 33.5016 26.8024 33.2999 26.5875 33.0763C26.297 34.5107 26.0136 35.9095 25.73 37.3083L25.7618 37.3232C25.7835 37.2884 25.81 37.2554 25.826 37.2181ZM35.0534 26.6533C35.8429 26.4496 36.6438 26.2903 37.4401 26.1127C37.4917 26.1011 37.5421 26.0841 37.5928 26.0695L37.585 26.0306C36.4634 26.1815 35.3419 26.3324 34.1638 26.491C34.485 26.6312 34.7325 26.736 35.0534 26.6533Z" fill="black"/>
</g>
<path d="M7.41421 10.0858L5 12.5H19L17.0997 10.2196C16.7197 9.76365 16.1568 9.5 15.5632 9.5H8.82843C8.29799 9.5 7.78929 9.71071 7.41421 10.0858Z" fill="#B70404" stroke="#B70404" stroke-width="0.5"/>
<defs>
<clipPath id="clip0_390_8636">
<rect width="15" height="15" fill="white" transform="translate(25.5 25.5)"/>
</clipPath>
</defs>
</svg>
